<?xml version="1.0" encoding="utf-8"?>
<!-- Svg Vector Icons : http://www.onlinewebfonts.com/icon -->
<!DOCTYPE svg PUBLIC "-//W3C//DTD SVG 1.1//EN" "http://www.w3.org/Graphics/SVG/1.1/DTD/svg11.dtd">
<svg version="1.1" xmlns="http://www.w3.org/2000/svg" xmlns:xlink="http://www.w3.org/1999/xlink" x="0px" y="0px" viewBox="0 0 1000 1000" enable-background="new 0 0 1000 1000" xml:space="preserve">
<metadata> Svg Vector Icons : http://www.onlinewebfonts.com/icon </metadata>
<g><g transform="translate(0.000000,511.000000) scale(0.100000,-0.100000)"><path d="M4985.5,4997c-610.5-63.7-1479.8-326.5-1989.8-602.7c-529.3-287.9-1004.5-734.1-1280.8-1205.5c-117.8-202.8-231.8-492.6-295.6-751.5c-56-224.1-65.7-444.3-46.4-994.9c7.7-253.1-1.9-291.7-150.7-542.9c-119.8-206.7-293.6-407.6-488.8-566C455.4,105.6,389.7-2.6,387.8-230.6c0-108.2,9.7-156.5,50.2-235.7C497.9-586,573.2-651.7,779.9-763.8c86.9-44.4,179.7-102.4,208.6-127.5l52.2-42.5l-36.7-75.3c-100.4-210.6-94.7-463.6,15.5-585.3c25.1-29,34.8-69.5,36.7-158.4c0-137.1,32.8-208.6,152.6-338.1c146.8-160.3,152.6-200.9,73.4-494.6c-34.8-131.3-52.1-243.4-52.1-347.7c0-137.1,7.7-168.1,63.7-276.2c156.5-305.2,440.5-448.2,880.9-448.2c206.7,1.9,316.8,15.5,888.6,123.6c282,54.1,660.7,85,751.5,61.8c79.2-19.3,133.3-160.3,214.4-552.5c123.6-610.4,148.8-697.4,204.8-738c61.8-46.3,119.8-32.8,164.2,32.8c29,44.4,27,65.7-29,293.6c-32.8,137.2-85,378.6-117.8,537.1c-40.6,199-79.2,332.3-125.6,425c-108.2,222.2-121.7,231.8-367,251.1c-226,17.4-519.7-13.5-971.7-100.5c-303.3-58-405.7-69.5-631.7-71.5c-243.4-1.9-280.1,1.9-365.1,42.5c-144.9,65.7-220.2,131.4-272.4,235.7c-61.8,119.8-59.9,170,3.9,411.5c61.8,233.7,69.5,465.6,19.3,579.5c-17.4,38.6-73.4,117.8-125.6,173.9c-141,148.8-148.8,173.9-100.5,260.8c57.9,102.4,46.4,179.6-32.9,218.3c-117.8,57.9-125.6,73.4-117.8,193.2c5.8,86.9,21.2,127.5,79.2,208.6c38.6,54.1,71.5,112.1,71.5,129.4c0,104.3-154.6,253.1-401.8,382.5c-98.5,52.2-200.9,119.8-226,150.7c-114,135.2-73.4,305.2,112,465.6c328.4,282,481,457.8,654.9,755.3c131.4,224.1,170,355.5,168.1,591.1c0,112-7.7,266.6-17.4,345.8c-13.5,94.7-11.6,204.8,1.9,328.4c119.8,1106.9,888.6,1947.3,2181,2387.7c960.1,326.5,1700,380.6,2507.5,183.5c1029.7-251.1,2001.4-844.2,2521-1537.7c229.9-307.2,427-745.7,504.2-1128.2c104.3-513.9,81.1-1163-57.9-1622.7c-104.3-340-231.8-554.4-624-1043.2c-413.4-511.9-658.8-915.7-757.3-1236.4c-57.9-191.3-57.9-428.9,0-656.8c48.3-181.6,285.9-826.8,417.3-1130.1c110.1-255,160.3-409.6,175.8-554.4c15.5-129.4,56-189.3,131.4-189.3c77.3,0,127.5,83.1,115.9,189.3c-21.3,175.8-83.1,384.4-181.6,612.4C8379.7-3277,8140.2-2618.3,8107.3-2456c-17.4,81.1-30.9,187.4-30.9,231.8c0,303.3,247.3,757.3,753.4,1389c471.4,587.3,622.1,875.1,736,1408.3c40.6,179.7,44.5,256.9,46.4,695.5c0,550.6-15.4,666.5-137.1,1062.5c-156.5,504.2-396,892.5-788.2,1286.6c-266.6,264.7-434.6,399.9-741.8,593.1C7442.8,4525.6,6787.9,4796,6241.2,4910C5835.5,4995,5317.8,5031.7,4985.5,4997z"/><path d="M5246.3,4378.8c-30.9-7.7-162.3-15.4-289.8-17.4c-430.8-3.9-691.6-56-896.4-181.6c-71.5-44.4-143-69.6-212.5-77.3c-139.1-15.5-313-100.5-459.8-222.2c-108.2-90.8-129.4-100.5-216.4-100.5c-81.1,0-108.2-11.6-189.3-75.4c-226-179.7-405.7-411.5-517.7-670.3c-32.8-77.3-96.6-181.6-141-235.7c-98.5-115.9-150.7-229.9-168.1-361.2c-5.8-52.2-38.6-154.6-69.6-224.1c-98.5-220.2-139.1-421.1-129.4-643.3c7.7-222.2,38.6-305.2,216.4-589.2c58-92.7,110.1-195.1,117.8-231.8c17.4-77.3,144.9-224.1,241.5-272.4c129.4-65.7,224.1-79.2,637.5-94.7c380.6-15.5,419.2-13.5,463.6,17.4c115.9,81.1,183.5,69.5,202.8-34.8c29-154.6,121.7-270.5,284-353.5c58-29,85-61.8,121.7-143c25.1-57.9,69.5-135.2,96.6-171.9c98.5-129.4,301.4-235.7,515.8-270.4c59.9-11.6,77.3-25.1,114-104.3c25.1-50.2,115.9-164.2,202.8-255c181.6-189.3,200.9-226,326.5-579.5c129.5-367.1,210.6-527.4,343.9-670.3c110.1-117.8,303.3-237.6,384.5-237.6c63.7,0,117.8,73.4,106.2,146.8c-9.6,52.2-3.8,69.6,27.1,86.9c104.3,54.1,77.3,185.5-50.2,237.6c-108.2,46.4-131.3,117.9-141,425c-7.7,257-5.8,268.5,27,255c257-98.5,612.4-123.6,867.4-61.8c193.2,48.3,504.2,204.8,672.3,338.1c158.4,125.6,322.6,316.8,419.2,490.7c54.1,94.7,69.5,110.1,119.8,110.1c115.9,0,388.3,316.8,510,593.1c86.9,197,129.4,417.3,135.2,701.3c3.9,142.9,15.5,324.5,29,401.8c38.6,226-32.8,558.3-148.7,697.4c-29,34.8-46.4,81.1-46.4,119.8c-1.9,200.9-110.1,506.1-262.7,732.2c-98.5,146.8-608.5,693.5-797.9,855.8c-135.2,115.9-320.7,206.7-421.1,206.7c-61.8,0-110.1,21.2-231.8,104.3c-187.4,123.6-357.4,193.2-444.3,179.7c-34.8-5.8-67.6-1.9-73.4,7.7c-25.1,36.7-133.3,79.2-276.2,104.3c-81.2,13.5-187.4,40.6-233.8,56c-106.3,38.6-175.8,38.6-303.3-1.9c-94.7-29-106.3-29-168.1,0C5470.4,4400,5346.8,4403.9,5246.3,4378.8z M5520.6,4106.4c50.2-21.2,81.1-21.2,164.2-1.9c191.3,46.4,206.7,46.4,289.8,15.4c46.4-17.4,142.9-38.6,216.4-48.3c86.9-13.5,146.8-32.8,173.9-57.9c59.9-56,144.9-83.1,224.1-69.5c85,13.5,222.2-52.2,421.1-202.8c119.8-92.7,135.2-98.5,212.5-88.9c152.6,19.3,231.8-38.6,693.5-513.9c438.5-450.1,558.3-660.7,583.4-1023.9c11.6-166.1,13.5-170,90.8-243.4c131.4-127.5,177.7-369,110.1-585.4c-25.1-81.1-30.9-158.4-27-345.8c9.6-425-96.6-736-343.9-996.8c-75.3-77.3-88.8-83.1-154.6-73.4c-88.8,13.5-139.1-25.1-183.5-150.7c-71.5-197-268.5-446.2-463.6-585.3c-262.7-187.4-481-260.8-766.9-260.8c-210.6,1.9-301.4,19.3-490.7,98.5c-115.9,48.3-143,67.6-171.9,127.5c-17.4,38.6-69.5,117.8-115.9,177.7c-115.9,152.6-146.8,218.3-146.8,322.6c0,106.3-38.6,162.3-115.9,162.3c-86.9,0-125.6-63.7-123.7-200.9c2-135.2,38.7-222.2,181.6-417.3c50.2-69.6,98.5-139.1,108.2-154.6s23.2-206.7,29-425c7.7-218.3,19.3-417.3,25.1-444.3c30.9-115.9-117.9,206.7-200.9,434.7c-146.8,403.7-195.1,490.7-386.4,695.5c-129.4,141-173.9,202.8-191.3,268.5c-11.6,46.4-34.8,94.7-52.1,110.1c-17.4,15.4-102.4,32.9-193.2,38.6c-272.4,21.3-396,112-463.6,341.9c-27,92.7-40.6,108.2-173.9,197.1c-152.6,104.3-200.9,170-200.9,280.1c0,108.2-29,141-148.8,175.8c-121.7,34.8-276.2,29-365.1-17.4c-46.4-23.2-119.8-25.1-423.1-13.5c-471.4,17.4-568,52.2-625.9,233.7c-11.6,38.6-71.5,146.8-131.4,241.5c-139.1,220.2-175.8,305.2-191.2,436.6c-17.4,148.7,36.7,394.1,129.4,593.1c46.4,100.5,75.3,189.3,75.3,237.6c0,104.3,40.6,191.2,141,299.4c46.4,52.1,98.5,137.1,117.8,189.3c81.1,220.2,243.4,454,417.3,598.9c79.2,67.6,90.8,71.5,179.7,59.9l92.7-13.5l139.1,129.4c162.3,152.6,287.9,214.4,459.8,233.8c98.5,9.7,141,25.1,208.6,77.3c150.7,114,287.8,144.9,730.2,158.4c214.4,7.7,397.9,19.3,405.7,29C5310.1,4154.7,5445.3,4139.2,5520.6,4106.4z"/><path d="M4454.3,3635c-59.9-58-59.9-85-7.7-152.6c40.6-52.2,44.4-52.2,208.6-40.6c266.6,21.2,554.4-46.4,589.2-135.2c7.7-21.3-13.5-61.8-54.1-114c-218.3-264.7-224.1-593.1-15.4-765c40.6-32.8,104.3-69.6,143-81.1c48.3-13.5,86.9-44.4,121.7-94.7c141-216.3,473.3-260.8,473.3-65.7c0,81.1-67.6,137.1-144.9,117.8c-61.8-15.4-141,56-156.5,143c-15.5,77.3-48.3,100.5-166.2,117.8c-199,30.9-241.5,158.4-129.5,382.5c67.6,135.2,158.4,208.7,280.1,228c144.9,21.2,206.7,135.2,119.8,218.3c-46.3,42.5-90.8,48.3-181.6,21.2c-54.1-15.4-63.8-9.7-110.1,46.4c-108.2,137.1-386.4,222.2-724.4,222.2C4514.1,3683.3,4496.8,3679.5,4454.3,3635z"/><path d="M6523.2,3014.9c-110.1-108.2,83.1-367,328.4-438.5c88.9-25.1,94.7-30.9,100.4-96.6c9.6-102.4-59.9-168.1-175.8-168.1c-92.7,0-187.4-56-187.4-110.1c0-42.5-119.8-156.5-181.6-171.9c-30.9-7.7-87-1.9-131.4,13.5c-67.6,21.3-83.1,21.3-127.5-9.7c-29-17.4-81.1-46.4-117.9-61.8c-59.9-27-73.4-27-137.1,1.9c-83.1,36.7-135.2,21.2-199-61.8c-58-73.4-131.4-100.5-427-150.7c-285.9-50.2-411.5-85-486.8-135.2c-38.6-25.1-48.3-23.2-88.9,7.7c-85,65.7-210.6,119.8-311,131.4c-94.7,11.6-108.2,21.2-226,146.8c-187.4,200.9-345.8,260.8-544.8,206.7c-112-30.9-148.7-135.2-73.4-202.8c29-25.1,65.7-34.8,135.2-30.9c123.6,3.9,173.9-23.2,328.4-181.6c146.8-150.7,202.8-183.5,309.1-183.5c85,0,166.1-36.7,316.8-144.9c104.3-75.3,143-75.3,224.1,1.9c65.7,61.8,175.8,94.7,454,141c258.9,42.5,372.9,77.3,477.2,146.8c56,36.7,98.5,48.3,179.7,48.3c65.7,0,133.3,13.5,170,32.8c34.8,17.4,123.7,38.6,197.1,44.4c170,15.5,262.7,59.9,394.1,187.4c56,56,115.9,102.4,133.3,102.4c57.9,0,199,81.1,245.3,142.9c25.1,34.8,57.9,106.3,73.4,162.3c21.3,86.9,34.7,104.3,108.2,143c139.1,75.3,200.9,241.5,117.8,324.5c-52.2,52.2-98.5,48.3-206.7-19.3c-171.9-110.1-367.1-67.6-452.1,100.5c-23.2,46.3-52.2,88.9-63.8,96.6C6641.1,3055.5,6554.2,3047.7,6523.2,3014.9z"/><path d="M3474.8,2935.7c-19.3-21.2-34.8-59.9-34.8-88.9c0-75.3,48.3-110.1,152.6-110.1c50.2,0,135.2-13.5,189.3-29c83.1-25.1,108.2-44.4,158.4-121.7c32.8-52.2,59.9-112.1,59.9-135.2c0-69.6,67.6-100.5,200.9-86.9c208.6,19.3,343.9-88.9,403.8-318.8c30.9-119.8,67.6-162.3,141-162.3c79.2,0,127.5,67.6,112,156.5c-46.4,274.3-299.4,533.2-554.4,571.8c-50.2,7.7-90.8,21.2-90.8,30.9s-30.9,59.9-69.5,112c-98.5,131.4-251.1,199-471.4,210.6C3527,2972.4,3503.8,2968.5,3474.8,2935.7z"/><path d="M7925.8,1904.1c-59.9-114-129.5-171.9-204.8-171.9c-114,0-156.5-30.9-266.6-187.4c-150.7-214.4-347.7-357.4-614.3-442.4c-131.3-40.6-173.8-75.3-173.8-141c1.9-131.4,156.5-193.2,363.2-146.8c67.6,15.5,129.4,29,137.2,29c9.7,0,23.2-40.6,30.9-90.8c17.4-123.6,75.4-251.1,117.9-264.7c21.3-5.8,123.6-19.3,229.9-29c305.2-29,438.5,13.5,488.7,162.3c25.1,79.2,17.4,127.5-27,173.9c-63.8,63.7-200.9,11.6-200.9-73.4c0-36.7-67.6-42.5-245.4-21.3c-98.5,13.5-102.4,15.4-112,83.1c-17.4,100.5-65.7,228-96.6,253.1c-25.1,19.3-5.8,44.4,108.2,150.7c73.4,67.6,160.4,162.3,193.2,208.6c30.9,46.4,73.4,85,90.8,85c117.9,0,332.3,170,390.2,307.1c38.6,94.7-1.9,164.2-102.4,171.9C7968.3,1965.9,7956.7,1960.1,7925.8,1904.1z"/><path d="M3355.1,1510c-90.8-90.8-38.6-189.3,135.2-256.9c61.8-23.2,137.2-56,166.1-71.5c58-32.8,143-38.6,160.3-9.7c5.8,11.6,42.5,19.3,79.2,19.3c58,0,85-17.4,162.3-96.6c52.2-52.2,108.2-96.6,123.6-96.6c27,0,29-7.7,11.6-38.6c-34.8-65.7,15.5-143,96.6-150.7c56-3.9,79.2,5.8,135.2,63.8c77.3,79.2,141,86.9,264.7,29c94.7-42.5,160.3-135.2,160.3-224.1c0-90.8,46.4-117.8,214.4-127.5c135.2-5.8,158.4-13.5,257-81.1c65.7-44.4,121.7-69.5,141-63.8s69.6,25.1,112.1,40.6c42.5,15.5,115.9,29,162.3,30.9c73.4,0,92.7-9.7,154.5-77.3c79.2-86.9,148.8-100.5,200.9-42.5c42.5,46.4,40.6,115.9-3.9,189.3c-67.6,112-295.6,177.7-504.2,144.9c-108.2-17.4-125.5-15.4-204.7,27.1c-48.3,25.1-139.1,56-200.9,69.5c-90.8,17.4-114,30.9-123.6,63.7c-19.3,75.3-170,228-272.4,274.3c-114,54.1-284,61.8-390.2,17.4c-36.7-15.5-71.5-29-73.4-29s-15.4,27-29,58c-54.1,129.4-262.7,251.1-432.7,251.1c-42.5,0-121.7,17.4-175.8,36.7C3449.7,1546.7,3399.5,1554.5,3355.1,1510z"/></g></g>
</svg>